<?xml version="1.0" encoding="utf-8"?>
<!-- Generator: Adobe Illustrator 25.4.1, SVG Export Plug-In . SVG Version: 6.00 Build 0)  -->
<svg version="1.1" id="Layer_1" xmlns="http://www.w3.org/2000/svg" xmlns:xlink="http://www.w3.org/1999/xlink" x="0px" y="0px"
	 viewBox="0 0 330.01 56.91" style="enable-background:new 0 0 330.01 56.91;" xml:space="preserve">
<style type="text/css">
	.st0{fill:#CAA25D;}
</style>
<g>
	<path class="st0" d="M29.95,33.86c0.47,1.05,0.92,2.12,1.36,3.21c0.43-1.12,0.89-2.21,1.38-3.27c0.48-1.06,0.98-2.08,1.49-3.08
		l14.3-28.16c0.25-0.48,0.52-0.86,0.78-1.13c0.27-0.27,0.57-0.47,0.9-0.59c0.33-0.13,0.71-0.19,1.13-0.19s0.91,0,1.47,0h9.86V56.3
		H51.22V24.27c0-1.55,0.08-3.24,0.23-5.05L36.69,47.85c-0.46,0.89-1.08,1.57-1.85,2.03c-0.78,0.46-1.66,0.69-2.66,0.69h-1.76
		c-0.99,0-1.88-0.23-2.66-0.69c-0.78-0.46-1.4-1.13-1.85-2.03L11.08,19.19c0.1,0.89,0.18,1.78,0.23,2.66
		c0.05,0.88,0.08,1.69,0.08,2.43V56.3H0V0.65h9.86c0.56,0,1.05,0,1.47,0c0.42,0,0.8,0.06,1.13,0.19c0.33,0.13,0.63,0.33,0.9,0.59
		c0.27,0.27,0.53,0.64,0.78,1.13l14.33,28.28C28.99,31.81,29.48,32.82,29.95,33.86z"/>
	<path class="st0" d="M142.03,28.44c0,4.03-0.69,7.77-2.08,11.24c-1.39,3.47-3.34,6.48-5.87,9.04c-2.52,2.56-5.56,4.57-9.12,6.02
		c-3.55,1.45-7.5,2.18-11.83,2.18c-4.33,0-8.28-0.73-11.85-2.18c-3.57-1.45-6.62-3.46-9.15-6.02c-2.54-2.56-4.5-5.57-5.89-9.04
		c-1.39-3.46-2.08-7.21-2.08-11.24c0-4.03,0.69-7.77,2.08-11.24c1.39-3.46,3.35-6.47,5.89-9.02c2.54-2.55,5.59-4.55,9.15-6
		C104.86,0.73,108.81,0,113.14,0c4.33,0,8.28,0.73,11.83,2.2c3.55,1.47,6.59,3.47,9.12,6.02c2.52,2.55,4.48,5.56,5.87,9.02
		C141.34,20.7,142.03,24.44,142.03,28.44z M128.81,28.44c0-2.75-0.36-5.23-1.07-7.43c-0.71-2.2-1.74-4.07-3.08-5.6
		c-1.34-1.53-2.98-2.7-4.91-3.52c-1.94-0.82-4.14-1.22-6.61-1.22c-2.5,0-4.72,0.41-6.67,1.22c-1.95,0.82-3.59,1.99-4.93,3.52
		c-1.34,1.53-2.36,3.4-3.08,5.6c-0.71,2.2-1.07,4.68-1.07,7.43c0,2.78,0.36,5.27,1.07,7.47c0.71,2.2,1.74,4.07,3.08,5.6
		c1.34,1.53,2.98,2.69,4.93,3.5c1.95,0.8,4.17,1.2,6.67,1.2c2.47,0,4.68-0.4,6.61-1.2c1.94-0.8,3.57-1.97,4.91-3.5
		c1.34-1.53,2.36-3.4,3.08-5.6C128.45,33.71,128.81,31.22,128.81,28.44z"/>
	<path class="st0" d="M187.21,36.12c0,3.11-0.39,5.94-1.17,8.49c-0.78,2.55-1.95,4.73-3.52,6.56c-1.57,1.82-3.54,3.24-5.91,4.24
		c-2.37,1.01-5.16,1.51-8.37,1.51c-1.45,0-2.89-0.08-4.3-0.23c-1.41-0.15-2.89-0.41-4.41-0.76l0.69-7.53
		c0.05-0.66,0.31-1.2,0.78-1.61c0.47-0.41,1.13-0.61,1.97-0.61c0.43,0,0.97,0.07,1.61,0.21c0.64,0.14,1.4,0.21,2.29,0.21
		c1.25,0,2.34-0.17,3.27-0.52c0.93-0.34,1.7-0.92,2.31-1.72c0.61-0.8,1.07-1.85,1.38-3.15c0.31-1.3,0.46-2.9,0.46-4.82V0.61h12.92
		V36.12z"/>
	<path class="st0" d="M261.59,56.3h-10.01c-1.12,0-2.04-0.26-2.77-0.78c-0.73-0.52-1.23-1.19-1.51-2.01l-3.29-9.71h-21.18
		l-3.29,9.71c-0.25,0.71-0.75,1.36-1.49,1.93c-0.74,0.57-1.64,0.86-2.71,0.86h-10.09l21.56-55.69h13.22L261.59,56.3z M225.82,35.01
		h15.21l-5.12-15.25c-0.33-0.97-0.72-2.11-1.17-3.42c-0.45-1.31-0.89-2.73-1.32-4.26c-0.41,1.55-0.83,2.99-1.26,4.32
		c-0.43,1.33-0.84,2.47-1.22,3.44L225.82,35.01z"/>
	<path class="st0" d="M289.61,0.69c0.38,0.05,0.73,0.15,1.03,0.29c0.31,0.14,0.6,0.34,0.88,0.59c0.28,0.26,0.6,0.6,0.96,1.03
		l26.45,33.44c-0.1-1.07-0.18-2.11-0.23-3.11c-0.05-1.01-0.08-1.96-0.08-2.85V0.61h11.39V56.3h-6.73c-0.99,0-1.83-0.15-2.52-0.46
		c-0.69-0.31-1.35-0.87-1.99-1.68l-26.26-33.18c0.08,0.97,0.14,1.92,0.19,2.85c0.05,0.93,0.08,1.8,0.08,2.62V56.3h-11.39V0.61h6.8
		C288.76,0.61,289.23,0.64,289.61,0.69z"/>
</g>
</svg>
