<?xml version="1.0" encoding="utf-8"?>
<!-- Generator: Adobe Illustrator 25.4.1, SVG Export Plug-In . SVG Version: 6.00 Build 0)  -->
<svg version="1.1" id="Layer_1" xmlns="http://www.w3.org/2000/svg" xmlns:xlink="http://www.w3.org/1999/xlink" x="0px" y="0px"
	 viewBox="0 0 45.04 42.19" style="enable-background:new 0 0 45.04 42.19;" xml:space="preserve">
<style type="text/css">
	.st0{fill:#B5B6B6;}
	.st1{fill:#CBA35E;}
	.st2{fill:#826A39;}
</style>
<g>
	<polygon class="st0" points="44.67,28.97 33.66,28.97 44.68,28.97 	"/>
	<g>
		<g>
			
				<ellipse transform="matrix(0.4588 -0.8885 0.8885 0.4588 10.571 25.6518)" class="st1" cx="26.34" cy="4.15" rx="4.61" ry="1.4"/>
			<g>
				<path class="st1" d="M4.09,39.04c0.06,0.14,0.13,0.29,0.19,0.44c0.06-0.15,0.12-0.3,0.19-0.45c0.07-0.14,0.13-0.28,0.2-0.42
					l1.95-3.84c0.03-0.07,0.07-0.12,0.11-0.15c0.04-0.04,0.08-0.06,0.12-0.08c0.05-0.02,0.1-0.03,0.15-0.03c0.06,0,0.12,0,0.2,0
					h1.35v7.6H6.99v-4.37c0-0.21,0.01-0.44,0.03-0.69l-2.01,3.91c-0.06,0.12-0.15,0.21-0.25,0.28c-0.11,0.06-0.23,0.09-0.36,0.09
					H4.15c-0.14,0-0.26-0.03-0.36-0.09c-0.11-0.06-0.19-0.15-0.25-0.28l-2.02-3.91c0.01,0.12,0.02,0.24,0.03,0.36
					c0.01,0.12,0.01,0.23,0.01,0.33v4.37H0v-7.6h1.35c0.08,0,0.14,0,0.2,0c0.06,0,0.11,0.01,0.15,0.03
					c0.05,0.02,0.09,0.04,0.12,0.08c0.04,0.04,0.07,0.09,0.11,0.15l1.96,3.86C3.96,38.76,4.02,38.9,4.09,39.04z"/>
				<path class="st1" d="M19.38,38.3c0,0.55-0.09,1.06-0.28,1.53c-0.19,0.47-0.46,0.88-0.8,1.23c-0.34,0.35-0.76,0.62-1.24,0.82
					c-0.49,0.2-1.02,0.3-1.61,0.3c-0.59,0-1.13-0.1-1.62-0.3c-0.49-0.2-0.9-0.47-1.25-0.82c-0.35-0.35-0.61-0.76-0.8-1.23
					c-0.19-0.47-0.28-0.98-0.28-1.53c0-0.55,0.09-1.06,0.28-1.53c0.19-0.47,0.46-0.88,0.8-1.23c0.35-0.35,0.76-0.62,1.25-0.82
					c0.49-0.2,1.03-0.3,1.62-0.3c0.59,0,1.13,0.1,1.61,0.3c0.49,0.2,0.9,0.47,1.24,0.82c0.34,0.35,0.61,0.76,0.8,1.23
					C19.29,37.24,19.38,37.75,19.38,38.3z M17.58,38.3c0-0.38-0.05-0.71-0.15-1.01c-0.1-0.3-0.24-0.56-0.42-0.76
					c-0.18-0.21-0.41-0.37-0.67-0.48c-0.26-0.11-0.57-0.17-0.9-0.17c-0.34,0-0.64,0.06-0.91,0.17c-0.27,0.11-0.49,0.27-0.67,0.48
					c-0.18,0.21-0.32,0.46-0.42,0.76c-0.1,0.3-0.15,0.64-0.15,1.01c0,0.38,0.05,0.72,0.15,1.02c0.1,0.3,0.24,0.56,0.42,0.76
					c0.18,0.21,0.41,0.37,0.67,0.48c0.27,0.11,0.57,0.16,0.91,0.16c0.34,0,0.64-0.05,0.9-0.16c0.26-0.11,0.49-0.27,0.67-0.48
					c0.18-0.21,0.32-0.46,0.42-0.76C17.53,39.02,17.58,38.68,17.58,38.3z"/>
				<path class="st1" d="M25.55,39.35c0,0.42-0.05,0.81-0.16,1.16c-0.11,0.35-0.27,0.65-0.48,0.89c-0.21,0.25-0.48,0.44-0.81,0.58
					c-0.32,0.14-0.7,0.21-1.14,0.21c-0.2,0-0.39-0.01-0.59-0.03c-0.19-0.02-0.39-0.06-0.6-0.1l0.09-1.03
					c0.01-0.09,0.04-0.16,0.11-0.22c0.06-0.06,0.15-0.08,0.27-0.08c0.06,0,0.13,0.01,0.22,0.03c0.09,0.02,0.19,0.03,0.31,0.03
					c0.17,0,0.32-0.02,0.45-0.07c0.13-0.05,0.23-0.13,0.32-0.23c0.08-0.11,0.15-0.25,0.19-0.43c0.04-0.18,0.06-0.4,0.06-0.66V34.5
					h1.76V39.35z"/>
				<path class="st1" d="M35.7,42.1h-1.37c-0.15,0-0.28-0.04-0.38-0.11c-0.1-0.07-0.17-0.16-0.21-0.27L33.3,40.4h-2.89l-0.45,1.32
					c-0.03,0.1-0.1,0.19-0.2,0.26c-0.1,0.08-0.22,0.12-0.37,0.12h-1.38l2.94-7.6h1.8L35.7,42.1z M30.82,39.2h2.08l-0.7-2.08
					c-0.05-0.13-0.1-0.29-0.16-0.47c-0.06-0.18-0.12-0.37-0.18-0.58c-0.06,0.21-0.11,0.41-0.17,0.59c-0.06,0.18-0.11,0.34-0.17,0.47
					L30.82,39.2z"/>
				<path class="st1" d="M39.53,34.51c0.05,0.01,0.1,0.02,0.14,0.04c0.04,0.02,0.08,0.05,0.12,0.08c0.04,0.03,0.08,0.08,0.13,0.14
					l3.61,4.56c-0.01-0.15-0.02-0.29-0.03-0.43c-0.01-0.14-0.01-0.27-0.01-0.39V34.5h1.55v7.6h-0.92c-0.14,0-0.25-0.02-0.34-0.06
					s-0.18-0.12-0.27-0.23l-3.58-4.53c0.01,0.13,0.02,0.26,0.03,0.39c0.01,0.13,0.01,0.25,0.01,0.36v4.07H38.4v-7.6h0.93
					C39.41,34.5,39.47,34.51,39.53,34.51z"/>
			</g>
			<polygon class="st1" points="13.4,28.97 22.02,4.4 0,28.97 			"/>
			<path class="st1" d="M13.4,28.97h20.11l-7.44-17.46C26.04,11.59,13.43,28.97,13.4,28.97z"/>
		</g>
	</g>
	<path class="st2" d="M45.04,28.97c-7.67-3.15-14.88-10.33-18.97-17.46l7.44,17.46l0,0l0.15,0l11,0L45.04,28.97z"/>
</g>
</svg>
